<svg width="24" height="24" viewBox="0 0 24 24" fill="none" xmlns="http://www.w3.org/2000/svg">
<rect width="24" height="24" fill="#6E54FF"/>
<g filter="url(#filter0_d_37_53)">
<path d="M11.9987 4.5C9.83094 4.5 4.49194 9.83402 4.49194 12C4.49194 14.1659 9.83094 19.5 11.9987 19.5C14.1665 19.5 19.5056 14.1658 19.5056 12C19.5056 9.83411 14.1666 4.5 11.9987 4.5ZM10.8289 16.2887C9.91479 16.0398 7.45705 11.7445 7.7062 10.8312C7.95534 9.91784 12.2545 7.46239 13.1686 7.71131C14.0828 7.96019 16.5405 12.2554 16.2914 13.1688C16.0422 14.0821 11.7431 16.5376 10.8289 16.2887Z" fill="white"/>
</g>
<defs>
<filter id="filter0_d_37_53" x="3.74194" y="4.5" width="16.5137" height="16.5" filterUnits="userSpaceOnUse" color-interpolation-filters="sRGB">
<feFlood flood-opacity="0" result="BackgroundImageFix"/>
<feColorMatrix in="SourceAlpha" type="matrix" values="0 0 0 0 0 0 0 0 0 0 0 0 0 0 0 0 0 0 127 0" result="hardAlpha"/>
<feOffset dy="0.75"/>
<feGaussianBlur stdDeviation="0.375"/>
<feComposite in2="hardAlpha" operator="out"/>
<feColorMatrix type="matrix" values="0 0 0 0 0 0 0 0 0 0 0 0 0 0 0 0 0 0 0.125 0"/>
<feBlend mode="normal" in2="BackgroundImageFix" result="effect1_dropShadow_37_53"/>
<feBlend mode="normal" in="SourceGraphic" in2="effect1_dropShadow_37_53" result="shape"/>
</filter>
</defs>
</svg>
